<svg width="1173" height="226" viewBox="0 0 1173 226" fill="none" xmlns="http://www.w3.org/2000/svg">
<mask id="path-1-outside-1_1_76" maskUnits="userSpaceOnUse" x="0" y="0" width="1173" height="226" fill="black">
<rect fill="white" width="1173" height="226"/>
<path d="M25 154V25H175V55H60V92.5H150V122.5H60V154H25ZM164.652 170.5C182.902 170.5 192.402 163.5 192.402 147.75V105H172.402V75H227.402V160.5C227.402 182.25 206.402 200.5 164.652 200.5H25.402V170.5H164.652ZM187.402 42.5C187.402 31.5 195.152 25 204.902 25C214.652 25 222.402 31.5 222.402 42.5C222.402 53.5 214.652 60 204.902 60C195.152 60 187.402 53.5 187.402 42.5ZM242.285 145V130C242.285 93.25 263.035 75 304.785 75H309.785C351.535 75 372.285 93.25 372.285 130V145C372.285 181.75 351.535 200 309.785 200H304.785C263.035 200 242.285 181.75 242.285 145ZM305.035 170H309.535C327.785 170 337.285 163 337.285 147.25V127.75C337.285 112 327.785 105 309.535 105H305.035C286.785 105 277.285 112 277.285 127.75V147.25C277.285 163 286.785 170 305.035 170ZM399.736 200V105H379.736V75H434.736V80.25C443.736 76.75 454.736 75 467.236 75H504.736V105H466.986C448.736 105 434.736 114.5 434.736 132.75V200H399.736ZM642.305 200H607.305V195.25C598.555 198.5 587.555 200 574.805 200C533.055 200 512.305 181.75 512.305 145V130C512.305 93.25 533.055 75 574.805 75C587.555 75 598.555 76.5 607.305 79.75V55H587.305V25H642.305V200ZM547.305 147.25C547.305 163 556.805 170 575.055 170C593.305 170 607.305 160.5 607.305 142.25V132.75C607.305 114.5 593.305 105 575.055 105C556.805 105 547.305 112 547.305 127.75V147.25ZM709.824 147.25C709.824 163 719.324 170 737.574 170H779.824V200H737.574C695.824 200 674.824 181.75 674.824 145V105H654.824V75H674.824V55H654.824V25H709.824V75H779.824V105H709.824V147.25ZM884.834 105H803.584V75H919.834V170H939.834V200H884.834V191C872.084 197 856.834 200 842.334 200C813.084 200 789.834 186.75 789.834 158.75C789.834 130.75 815.584 115 847.334 115H884.834V105ZM846.084 145C834.084 145 824.834 149.25 824.834 157.5C824.834 165.75 834.084 170 846.084 170C864.334 170 884.834 160.75 884.834 147.5V145H846.084ZM954.932 200V55H934.932V25H989.932V170H1009.93V200H954.932ZM1147.43 170V200H1079.93C1038.18 200 1017.43 181.75 1017.43 145V130C1017.43 93.25 1038.18 75 1079.93 75H1084.93C1126.68 75 1147.43 93.25 1147.43 130V160H1055.43C1059.68 166.75 1067.93 170 1080.18 170H1147.43ZM1052.43 130H1112.43C1112.43 114.25 1102.93 105 1084.68 105H1080.18C1061.93 105 1052.43 112 1052.43 127.75V130Z"/>
</mask>
<path d="M25 154V25H175V55H60V92.5H150V122.5H60V154H25ZM164.652 170.5C182.902 170.5 192.402 163.5 192.402 147.75V105H172.402V75H227.402V160.5C227.402 182.25 206.402 200.5 164.652 200.5H25.402V170.5H164.652ZM187.402 42.5C187.402 31.5 195.152 25 204.902 25C214.652 25 222.402 31.5 222.402 42.5C222.402 53.5 214.652 60 204.902 60C195.152 60 187.402 53.5 187.402 42.5ZM242.285 145V130C242.285 93.25 263.035 75 304.785 75H309.785C351.535 75 372.285 93.25 372.285 130V145C372.285 181.75 351.535 200 309.785 200H304.785C263.035 200 242.285 181.75 242.285 145ZM305.035 170H309.535C327.785 170 337.285 163 337.285 147.25V127.75C337.285 112 327.785 105 309.535 105H305.035C286.785 105 277.285 112 277.285 127.75V147.25C277.285 163 286.785 170 305.035 170ZM399.736 200V105H379.736V75H434.736V80.25C443.736 76.75 454.736 75 467.236 75H504.736V105H466.986C448.736 105 434.736 114.5 434.736 132.75V200H399.736ZM642.305 200H607.305V195.25C598.555 198.5 587.555 200 574.805 200C533.055 200 512.305 181.75 512.305 145V130C512.305 93.25 533.055 75 574.805 75C587.555 75 598.555 76.5 607.305 79.75V55H587.305V25H642.305V200ZM547.305 147.25C547.305 163 556.805 170 575.055 170C593.305 170 607.305 160.5 607.305 142.25V132.75C607.305 114.5 593.305 105 575.055 105C556.805 105 547.305 112 547.305 127.75V147.25ZM709.824 147.25C709.824 163 719.324 170 737.574 170H779.824V200H737.574C695.824 200 674.824 181.75 674.824 145V105H654.824V75H674.824V55H654.824V25H709.824V75H779.824V105H709.824V147.25ZM884.834 105H803.584V75H919.834V170H939.834V200H884.834V191C872.084 197 856.834 200 842.334 200C813.084 200 789.834 186.75 789.834 158.75C789.834 130.75 815.584 115 847.334 115H884.834V105ZM846.084 145C834.084 145 824.834 149.25 824.834 157.5C824.834 165.75 834.084 170 846.084 170C864.334 170 884.834 160.75 884.834 147.5V145H846.084ZM954.932 200V55H934.932V25H989.932V170H1009.93V200H954.932ZM1147.43 170V200H1079.93C1038.18 200 1017.43 181.75 1017.43 145V130C1017.43 93.25 1038.18 75 1079.93 75H1084.93C1126.68 75 1147.43 93.25 1147.43 130V160H1055.43C1059.68 166.75 1067.93 170 1080.18 170H1147.43ZM1052.43 130H1112.43C1112.43 114.25 1102.93 105 1084.68 105H1080.18C1061.93 105 1052.43 112 1052.43 127.75V130Z" fill="#1E3156"/>
<path d="M25 154V25H175V55H60V92.5H150V122.5H60V154H25ZM164.652 170.5C182.902 170.5 192.402 163.5 192.402 147.75V105H172.402V75H227.402V160.5C227.402 182.25 206.402 200.5 164.652 200.5H25.402V170.5H164.652ZM187.402 42.5C187.402 31.5 195.152 25 204.902 25C214.652 25 222.402 31.5 222.402 42.5C222.402 53.5 214.652 60 204.902 60C195.152 60 187.402 53.5 187.402 42.5ZM242.285 145V130C242.285 93.25 263.035 75 304.785 75H309.785C351.535 75 372.285 93.25 372.285 130V145C372.285 181.75 351.535 200 309.785 200H304.785C263.035 200 242.285 181.75 242.285 145ZM305.035 170H309.535C327.785 170 337.285 163 337.285 147.25V127.75C337.285 112 327.785 105 309.535 105H305.035C286.785 105 277.285 112 277.285 127.75V147.25C277.285 163 286.785 170 305.035 170ZM399.736 200V105H379.736V75H434.736V80.25C443.736 76.75 454.736 75 467.236 75H504.736V105H466.986C448.736 105 434.736 114.5 434.736 132.75V200H399.736ZM642.305 200H607.305V195.25C598.555 198.5 587.555 200 574.805 200C533.055 200 512.305 181.75 512.305 145V130C512.305 93.25 533.055 75 574.805 75C587.555 75 598.555 76.5 607.305 79.75V55H587.305V25H642.305V200ZM547.305 147.25C547.305 163 556.805 170 575.055 170C593.305 170 607.305 160.5 607.305 142.25V132.75C607.305 114.5 593.305 105 575.055 105C556.805 105 547.305 112 547.305 127.75V147.25ZM709.824 147.25C709.824 163 719.324 170 737.574 170H779.824V200H737.574C695.824 200 674.824 181.75 674.824 145V105H654.824V75H674.824V55H654.824V25H709.824V75H779.824V105H709.824V147.25ZM884.834 105H803.584V75H919.834V170H939.834V200H884.834V191C872.084 197 856.834 200 842.334 200C813.084 200 789.834 186.75 789.834 158.75C789.834 130.75 815.584 115 847.334 115H884.834V105ZM846.084 145C834.084 145 824.834 149.25 824.834 157.5C824.834 165.75 834.084 170 846.084 170C864.334 170 884.834 160.75 884.834 147.5V145H846.084ZM954.932 200V55H934.932V25H989.932V170H1009.93V200H954.932ZM1147.43 170V200H1079.93C1038.18 200 1017.43 181.75 1017.43 145V130C1017.43 93.25 1038.18 75 1079.93 75H1084.93C1126.68 75 1147.43 93.25 1147.43 130V160H1055.43C1059.68 166.75 1067.93 170 1080.18 170H1147.43ZM1052.43 130H1112.43C1112.43 114.25 1102.93 105 1084.68 105H1080.18C1061.93 105 1052.43 112 1052.43 127.75V130Z" stroke="white" stroke-width="50" mask="url(#path-1-outside-1_1_76)"/>
<rect x="293" y="123" width="33" height="31" fill="white"/>
<rect x="567" y="128" width="24" height="26" fill="white"/>
<rect x="722" y="126" width="56" height="28" fill="white"/>
<rect y="175" width="10" height="50" fill="white"/>
</svg>
